# xmcd
#
# Track frame offsets: 
#        150
#        29242
#        43145
#        62005
#        78282
#        97385
#        121657
#        139572
#        158545
#        177750
#        195752
#        217917
#        234402
#        251297
#        266142
#        280977
#        296830
#        313525
#
# Disc length: 4399 seconds
#
# Revision: 0
# Processed by: cddbd v1.4PL0 Copyright (c) Steve Scherf et al.
# Submitted via: ExactAudioCopy v0.90b3
#
DISCID=fc112d12
DTITLE=Alabama - Hit Singles (MayPop Music Group) - Disc 1
DYEAR=1900
DGENRE=Country
TTITLE0=My Home's In Alabama
TTITLE1=Tennessee River
TTITLE2=Why Lady Why
TTITLE3=Feels So Right
TTITLE4=Mountain Music
TTITLE5=Dixieland Delight
TTITLE6=Lady Down On Love
TTITLE7=There's No Way
TTITLE8=You've Got The Touch
TTITLE9=Fallin' Again
TTITLE10=Pass It On Down
TTITLE11=Jukebox In My Mind
TTITLE12=Then Again
TTITLE13=Take A Little Trip
TTITLE14=We Can't Love Like This Anymore
TTITLE15=Give Me One More Shot
TTITLE16=It Works
TTITLE17=The Maker Said Take Her
EXTD=
EXTT0=
EXTT1=
EXTT2=
EXTT3=
EXTT4=
EXTT5=
EXTT6=
EXTT7=
EXTT8=
EXTT9=
EXTT10=
EXTT11=
EXTT12=
EXTT13=
EXTT14=
EXTT15=
EXTT16=
EXTT17=
PLAYORDER=
